<mxfile host="app.diagrams.net" modified="2024-06-21T15:10:51.082Z" agent="Mozilla/5.0 (Windows NT 10.0; Win64; x64) AppleWebKit/537.36 (KHTML, like Gecko) Chrome/126.0.0.0 Safari/537.36" etag="VPevD6R_s5DGcXo0L28S" version="24.6.0" type="device">
  <diagram name="Trang-1" id="tHVMkoSW42PBoJkg_GBa">
    <mxGraphModel dx="2068" dy="892" grid="1" gridSize="10" guides="1" tooltips="1" connect="1" arrows="1" fold="1" page="1" pageScale="1" pageWidth="827" pageHeight="1169" math="0" shadow="0">
      <root>
        <mxCell id="0" />
        <mxCell id="1" parent="0" />
        <mxCell id="M-I3FPsPZdNOpzpNkjFR-1" value="" style="strokeWidth=1;shadow=0;dashed=0;align=center;html=1;shape=mxgraph.mockup.containers.browserWindow;rSize=0;strokeColor=#1A1A1A;strokeColor2=#008cff;strokeColor3=#c4c4c4;mainText=,;recursiveResize=0;" vertex="1" parent="1">
          <mxGeometry y="40" width="1070" height="620" as="geometry" />
        </mxCell>
        <mxCell id="M-I3FPsPZdNOpzpNkjFR-2" value="Overall" style="strokeWidth=1;shadow=0;dashed=0;align=center;html=1;shape=mxgraph.mockup.containers.anchor;fontSize=17;fontColor=#666666;align=left;whiteSpace=wrap;" vertex="1" parent="M-I3FPsPZdNOpzpNkjFR-1">
          <mxGeometry x="60" y="12" width="110" height="26" as="geometry" />
        </mxCell>
        <mxCell id="M-I3FPsPZdNOpzpNkjFR-3" value="https://www.financialsaver.com" style="strokeWidth=1;shadow=0;dashed=0;align=center;html=1;shape=mxgraph.mockup.containers.anchor;rSize=0;fontSize=17;fontColor=#666666;align=left;" vertex="1" parent="M-I3FPsPZdNOpzpNkjFR-1">
          <mxGeometry x="130" y="60" width="250" height="26" as="geometry" />
        </mxCell>
        <mxCell id="M-I3FPsPZdNOpzpNkjFR-4" value="" style="rounded=0;whiteSpace=wrap;html=1;" vertex="1" parent="M-I3FPsPZdNOpzpNkjFR-1">
          <mxGeometry y="110" width="1070" height="50" as="geometry" />
        </mxCell>
        <mxCell id="M-I3FPsPZdNOpzpNkjFR-6" value="&lt;font face=&quot;Tahoma&quot; style=&quot;font-size: 14px;&quot;&gt;&lt;b&gt;Menu Sidebar&lt;/b&gt;&lt;/font&gt;" style="rounded=0;whiteSpace=wrap;html=1;" vertex="1" parent="M-I3FPsPZdNOpzpNkjFR-1">
          <mxGeometry y="160" width="160" height="460" as="geometry" />
        </mxCell>
        <mxCell id="M-I3FPsPZdNOpzpNkjFR-10" value="" style="html=1;verticalLabelPosition=bottom;align=center;labelBackgroundColor=#ffffff;verticalAlign=top;strokeWidth=2;strokeColor=#1A1A1A;shadow=0;dashed=0;shape=mxgraph.ios7.icons.user;" vertex="1" parent="M-I3FPsPZdNOpzpNkjFR-1">
          <mxGeometry x="1030" y="120" width="30" height="30" as="geometry" />
        </mxCell>
        <mxCell id="M-I3FPsPZdNOpzpNkjFR-13" value="" style="ellipse;whiteSpace=wrap;html=1;aspect=fixed;" vertex="1" parent="M-I3FPsPZdNOpzpNkjFR-1">
          <mxGeometry x="990" y="120" width="30" height="30" as="geometry" />
        </mxCell>
        <mxCell id="M-I3FPsPZdNOpzpNkjFR-11" value="" style="html=1;verticalLabelPosition=bottom;align=center;labelBackgroundColor=#ffffff;verticalAlign=top;strokeWidth=2;strokeColor=#1A1A1A;shadow=0;dashed=0;shape=mxgraph.ios7.icons.bell;" vertex="1" parent="M-I3FPsPZdNOpzpNkjFR-1">
          <mxGeometry x="996.5" y="126.73" width="17" height="16.55" as="geometry" />
        </mxCell>
        <mxCell id="M-I3FPsPZdNOpzpNkjFR-24" value="&lt;font face=&quot;Tahoma&quot; style=&quot;font-size: 18px;&quot;&gt;&lt;b&gt;Main content&lt;/b&gt;&lt;/font&gt;" style="text;html=1;align=center;verticalAlign=middle;whiteSpace=wrap;rounded=0;" vertex="1" parent="M-I3FPsPZdNOpzpNkjFR-1">
          <mxGeometry x="550" y="375" width="140" height="30" as="geometry" />
        </mxCell>
        <mxCell id="M-I3FPsPZdNOpzpNkjFR-32" value="&lt;font face=&quot;Tahoma&quot; style=&quot;font-size: 14px;&quot;&gt;&lt;b&gt;Financial Saver&lt;/b&gt;&lt;/font&gt;" style="text;html=1;align=center;verticalAlign=middle;whiteSpace=wrap;rounded=0;" vertex="1" parent="M-I3FPsPZdNOpzpNkjFR-1">
          <mxGeometry x="107.5" y="120" width="120" height="30" as="geometry" />
        </mxCell>
        <mxCell id="M-I3FPsPZdNOpzpNkjFR-33" value="Logo" style="ellipse;shape=doubleEllipse;whiteSpace=wrap;html=1;aspect=fixed;" vertex="1" parent="M-I3FPsPZdNOpzpNkjFR-1">
          <mxGeometry x="70" y="116.25" width="37.5" height="37.5" as="geometry" />
        </mxCell>
        <mxCell id="M-I3FPsPZdNOpzpNkjFR-34" value="" style="html=1;verticalLabelPosition=bottom;labelBackgroundColor=#ffffff;verticalAlign=top;shadow=0;dashed=0;strokeWidth=2;shape=mxgraph.ios7.misc.options;fillColor=#222222;sketch=0;" vertex="1" parent="M-I3FPsPZdNOpzpNkjFR-1">
          <mxGeometry x="20" y="127.26999999999998" width="30" height="16" as="geometry" />
        </mxCell>
        <mxCell id="M-I3FPsPZdNOpzpNkjFR-14" value="" style="strokeWidth=1;shadow=0;dashed=0;align=center;html=1;shape=mxgraph.mockup.containers.browserWindow;rSize=0;strokeColor=#1A1A1A;strokeColor2=#008cff;strokeColor3=#c4c4c4;mainText=,;recursiveResize=0;" vertex="1" parent="1">
          <mxGeometry y="680" width="1080" height="620" as="geometry" />
        </mxCell>
        <mxCell id="M-I3FPsPZdNOpzpNkjFR-15" value="List Exchange" style="strokeWidth=1;shadow=0;dashed=0;align=center;html=1;shape=mxgraph.mockup.containers.anchor;fontSize=17;fontColor=#666666;align=left;whiteSpace=wrap;" vertex="1" parent="M-I3FPsPZdNOpzpNkjFR-14">
          <mxGeometry x="60" y="12" width="110" height="26" as="geometry" />
        </mxCell>
        <mxCell id="M-I3FPsPZdNOpzpNkjFR-16" value="https://www.financialsaver.com" style="strokeWidth=1;shadow=0;dashed=0;align=center;html=1;shape=mxgraph.mockup.containers.anchor;rSize=0;fontSize=17;fontColor=#666666;align=left;" vertex="1" parent="M-I3FPsPZdNOpzpNkjFR-14">
          <mxGeometry x="130" y="60" width="250" height="26" as="geometry" />
        </mxCell>
        <mxCell id="M-I3FPsPZdNOpzpNkjFR-17" value="" style="rounded=0;whiteSpace=wrap;html=1;" vertex="1" parent="M-I3FPsPZdNOpzpNkjFR-14">
          <mxGeometry y="110" width="1070" height="50" as="geometry" />
        </mxCell>
        <mxCell id="M-I3FPsPZdNOpzpNkjFR-18" value="&lt;font face=&quot;Tahoma&quot; style=&quot;font-size: 14px;&quot;&gt;&lt;b&gt;Menu Sidebar&lt;/b&gt;&lt;/font&gt;" style="rounded=0;whiteSpace=wrap;html=1;" vertex="1" parent="M-I3FPsPZdNOpzpNkjFR-14">
          <mxGeometry y="160" width="160" height="460" as="geometry" />
        </mxCell>
        <mxCell id="M-I3FPsPZdNOpzpNkjFR-19" value="&lt;font face=&quot;Tahoma&quot; style=&quot;font-size: 14px;&quot;&gt;&lt;b&gt;Financial Saver&lt;/b&gt;&lt;/font&gt;" style="text;html=1;align=center;verticalAlign=middle;whiteSpace=wrap;rounded=0;" vertex="1" parent="M-I3FPsPZdNOpzpNkjFR-14">
          <mxGeometry x="107.5" y="120.01" width="120" height="30" as="geometry" />
        </mxCell>
        <mxCell id="M-I3FPsPZdNOpzpNkjFR-20" value="Logo" style="ellipse;shape=doubleEllipse;whiteSpace=wrap;html=1;aspect=fixed;" vertex="1" parent="M-I3FPsPZdNOpzpNkjFR-14">
          <mxGeometry x="70" y="116.26" width="37.5" height="37.5" as="geometry" />
        </mxCell>
        <mxCell id="M-I3FPsPZdNOpzpNkjFR-21" value="" style="html=1;verticalLabelPosition=bottom;align=center;labelBackgroundColor=#ffffff;verticalAlign=top;strokeWidth=2;strokeColor=#1A1A1A;shadow=0;dashed=0;shape=mxgraph.ios7.icons.user;" vertex="1" parent="M-I3FPsPZdNOpzpNkjFR-14">
          <mxGeometry x="1030" y="120" width="30" height="30" as="geometry" />
        </mxCell>
        <mxCell id="M-I3FPsPZdNOpzpNkjFR-22" value="" style="ellipse;whiteSpace=wrap;html=1;aspect=fixed;" vertex="1" parent="M-I3FPsPZdNOpzpNkjFR-14">
          <mxGeometry x="990" y="120" width="30" height="30" as="geometry" />
        </mxCell>
        <mxCell id="M-I3FPsPZdNOpzpNkjFR-23" value="" style="html=1;verticalLabelPosition=bottom;align=center;labelBackgroundColor=#ffffff;verticalAlign=top;strokeWidth=2;strokeColor=#1A1A1A;shadow=0;dashed=0;shape=mxgraph.ios7.icons.bell;" vertex="1" parent="M-I3FPsPZdNOpzpNkjFR-14">
          <mxGeometry x="996.5" y="126.73" width="17" height="16.55" as="geometry" />
        </mxCell>
        <mxCell id="M-I3FPsPZdNOpzpNkjFR-26" value="" style="html=1;verticalLabelPosition=bottom;labelBackgroundColor=#ffffff;verticalAlign=top;shadow=0;dashed=0;strokeWidth=2;shape=mxgraph.ios7.misc.options;fillColor=#222222;sketch=0;" vertex="1" parent="M-I3FPsPZdNOpzpNkjFR-14">
          <mxGeometry x="20" y="127.27999999999997" width="30" height="16" as="geometry" />
        </mxCell>
        <mxCell id="M-I3FPsPZdNOpzpNkjFR-35" value="&lt;font face=&quot;Tahoma&quot;&gt;&lt;span style=&quot;font-size: 18px;&quot;&gt;&lt;b&gt;Exchange Management&lt;/b&gt;&lt;/span&gt;&lt;/font&gt;" style="text;html=1;align=center;verticalAlign=middle;whiteSpace=wrap;rounded=0;" vertex="1" parent="M-I3FPsPZdNOpzpNkjFR-14">
          <mxGeometry x="180" y="160" width="220" height="50" as="geometry" />
        </mxCell>
        <mxCell id="M-I3FPsPZdNOpzpNkjFR-36" value="" style="strokeWidth=1;shadow=0;dashed=0;align=center;html=1;shape=mxgraph.mockup.containers.marginRect2;rectMarginTop=32;strokeColor=#1A1A1A;gradientColor=none;whiteSpace=wrap;" vertex="1" parent="M-I3FPsPZdNOpzpNkjFR-14">
          <mxGeometry x="180" y="200" width="900" height="400" as="geometry" />
        </mxCell>
        <mxCell id="M-I3FPsPZdNOpzpNkjFR-37" value="Spend" style="strokeColor=inherit;fillColor=inherit;gradientColor=inherit;strokeWidth=1;shadow=0;dashed=0;align=center;html=1;shape=mxgraph.mockup.containers.rrect;rSize=0;fontSize=17;fontColor=#666666;gradientColor=none;" vertex="1" parent="M-I3FPsPZdNOpzpNkjFR-36">
          <mxGeometry width="60" height="25" relative="1" as="geometry">
            <mxPoint x="10" as="offset" />
          </mxGeometry>
        </mxCell>
        <mxCell id="M-I3FPsPZdNOpzpNkjFR-38" value="Income" style="strokeWidth=1;shadow=0;dashed=0;align=center;html=1;shape=mxgraph.mockup.containers.rrect;rSize=0;fontSize=17;fontColor=#ffffff;strokeColor=#1A1A1A;fillColor=#666666;" vertex="1" parent="M-I3FPsPZdNOpzpNkjFR-36">
          <mxGeometry width="60" height="25" relative="1" as="geometry">
            <mxPoint x="75" as="offset" />
          </mxGeometry>
        </mxCell>
        <mxCell id="M-I3FPsPZdNOpzpNkjFR-39" value="Saving" style="strokeColor=inherit;fillColor=inherit;gradientColor=inherit;strokeWidth=1;shadow=0;dashed=0;align=center;html=1;shape=mxgraph.mockup.containers.rrect;rSize=0;fontSize=17;fontColor=#666666;gradientColor=none;" vertex="1" parent="M-I3FPsPZdNOpzpNkjFR-36">
          <mxGeometry width="80" height="25" relative="1" as="geometry">
            <mxPoint x="140" as="offset" />
          </mxGeometry>
        </mxCell>
        <mxCell id="M-I3FPsPZdNOpzpNkjFR-40" value="" style="strokeWidth=1;shadow=0;dashed=0;align=center;html=1;shape=mxgraph.mockup.containers.topButton;rSize=5;strokeColor=#008cff;fillColor=#808080;gradientColor=none;resizeWidth=1;movable=0;deletable=1;" vertex="1" parent="M-I3FPsPZdNOpzpNkjFR-36">
          <mxGeometry width="870" height="7" relative="1" as="geometry">
            <mxPoint y="25" as="offset" />
          </mxGeometry>
        </mxCell>
        <mxCell id="M-I3FPsPZdNOpzpNkjFR-41" value="" style="html=1;verticalLabelPosition=bottom;labelBackgroundColor=#ffffff;verticalAlign=top;shadow=0;dashed=0;strokeWidth=2;shape=mxgraph.ios7.misc.add;fillColor=#808080;strokeColor=#ffffff;sketch=0;" vertex="1" parent="M-I3FPsPZdNOpzpNkjFR-36">
          <mxGeometry x="818.8235294117646" y="350" width="40.94117647058823" height="40" as="geometry" />
        </mxCell>
        <mxCell id="M-I3FPsPZdNOpzpNkjFR-42" value="&lt;font style=&quot;font-size: 12px;&quot;&gt;Button đa &lt;br&gt;chức năng&lt;/font&gt;" style="text;html=1;align=center;verticalAlign=middle;whiteSpace=wrap;rounded=0;" vertex="1" parent="M-I3FPsPZdNOpzpNkjFR-36">
          <mxGeometry x="798.3529411764706" y="320" width="71.6470588235294" height="30" as="geometry" />
        </mxCell>
        <mxCell id="M-I3FPsPZdNOpzpNkjFR-56" value="&lt;font face=&quot;Tahoma&quot; style=&quot;font-size: 14px;&quot;&gt;&lt;b&gt;Bảng thống kê Exchange&lt;/b&gt;&lt;/font&gt;" style="text;html=1;align=center;verticalAlign=middle;whiteSpace=wrap;rounded=0;" vertex="1" parent="M-I3FPsPZdNOpzpNkjFR-36">
          <mxGeometry x="352.88235294117646" y="340" width="184.23529411764707" height="30" as="geometry" />
        </mxCell>
        <mxCell id="M-I3FPsPZdNOpzpNkjFR-189" value="" style="childLayout=tableLayout;recursiveResize=0;shadow=0;fillColor=none;" vertex="1" parent="M-I3FPsPZdNOpzpNkjFR-36">
          <mxGeometry x="10" y="40" width="290" height="140" as="geometry" />
        </mxCell>
        <mxCell id="M-I3FPsPZdNOpzpNkjFR-190" value="" style="shape=tableRow;horizontal=0;startSize=0;swimlaneHead=0;swimlaneBody=0;top=0;left=0;bottom=0;right=0;dropTarget=0;collapsible=0;recursiveResize=0;expand=0;fontStyle=0;fillColor=none;strokeColor=inherit;" vertex="1" parent="M-I3FPsPZdNOpzpNkjFR-189">
          <mxGeometry width="290" height="47" as="geometry" />
        </mxCell>
        <mxCell id="M-I3FPsPZdNOpzpNkjFR-191" value="Budget" style="connectable=0;recursiveResize=0;strokeColor=inherit;fillColor=none;align=center;whiteSpace=wrap;html=1;fontStyle=1" vertex="1" parent="M-I3FPsPZdNOpzpNkjFR-190">
          <mxGeometry width="97" height="47" as="geometry">
            <mxRectangle width="97" height="47" as="alternateBounds" />
          </mxGeometry>
        </mxCell>
        <mxCell id="M-I3FPsPZdNOpzpNkjFR-192" value="From" style="connectable=0;recursiveResize=0;strokeColor=inherit;fillColor=none;align=center;whiteSpace=wrap;html=1;fontStyle=1" vertex="1" parent="M-I3FPsPZdNOpzpNkjFR-190">
          <mxGeometry x="97" width="96" height="47" as="geometry">
            <mxRectangle width="96" height="47" as="alternateBounds" />
          </mxGeometry>
        </mxCell>
        <mxCell id="M-I3FPsPZdNOpzpNkjFR-193" value="To" style="connectable=0;recursiveResize=0;strokeColor=inherit;fillColor=none;align=center;whiteSpace=wrap;html=1;fontStyle=1" vertex="1" parent="M-I3FPsPZdNOpzpNkjFR-190">
          <mxGeometry x="193" width="97" height="47" as="geometry">
            <mxRectangle width="97" height="47" as="alternateBounds" />
          </mxGeometry>
        </mxCell>
        <mxCell id="M-I3FPsPZdNOpzpNkjFR-194" style="shape=tableRow;horizontal=0;startSize=0;swimlaneHead=0;swimlaneBody=0;top=0;left=0;bottom=0;right=0;dropTarget=0;collapsible=0;recursiveResize=0;expand=0;fontStyle=0;fillColor=none;strokeColor=inherit;" vertex="1" parent="M-I3FPsPZdNOpzpNkjFR-189">
          <mxGeometry y="47" width="290" height="46" as="geometry" />
        </mxCell>
        <mxCell id="M-I3FPsPZdNOpzpNkjFR-195" value="" style="connectable=0;recursiveResize=0;strokeColor=inherit;fillColor=none;align=center;whiteSpace=wrap;html=1;" vertex="1" parent="M-I3FPsPZdNOpzpNkjFR-194">
          <mxGeometry width="97" height="46" as="geometry">
            <mxRectangle width="97" height="46" as="alternateBounds" />
          </mxGeometry>
        </mxCell>
        <mxCell id="M-I3FPsPZdNOpzpNkjFR-196" value="" style="connectable=0;recursiveResize=0;strokeColor=inherit;fillColor=none;align=center;whiteSpace=wrap;html=1;" vertex="1" parent="M-I3FPsPZdNOpzpNkjFR-194">
          <mxGeometry x="97" width="96" height="46" as="geometry">
            <mxRectangle width="96" height="46" as="alternateBounds" />
          </mxGeometry>
        </mxCell>
        <mxCell id="M-I3FPsPZdNOpzpNkjFR-197" value="" style="connectable=0;recursiveResize=0;strokeColor=inherit;fillColor=none;align=center;whiteSpace=wrap;html=1;" vertex="1" parent="M-I3FPsPZdNOpzpNkjFR-194">
          <mxGeometry x="193" width="97" height="46" as="geometry">
            <mxRectangle width="97" height="46" as="alternateBounds" />
          </mxGeometry>
        </mxCell>
        <mxCell id="M-I3FPsPZdNOpzpNkjFR-198" style="shape=tableRow;horizontal=0;startSize=0;swimlaneHead=0;swimlaneBody=0;top=0;left=0;bottom=0;right=0;dropTarget=0;collapsible=0;recursiveResize=0;expand=0;fontStyle=0;fillColor=none;strokeColor=inherit;" vertex="1" parent="M-I3FPsPZdNOpzpNkjFR-189">
          <mxGeometry y="93" width="290" height="47" as="geometry" />
        </mxCell>
        <mxCell id="M-I3FPsPZdNOpzpNkjFR-199" value="" style="connectable=0;recursiveResize=0;strokeColor=inherit;fillColor=none;align=center;whiteSpace=wrap;html=1;" vertex="1" parent="M-I3FPsPZdNOpzpNkjFR-198">
          <mxGeometry width="97" height="47" as="geometry">
            <mxRectangle width="97" height="47" as="alternateBounds" />
          </mxGeometry>
        </mxCell>
        <mxCell id="M-I3FPsPZdNOpzpNkjFR-200" value="" style="connectable=0;recursiveResize=0;strokeColor=inherit;fillColor=none;align=center;whiteSpace=wrap;html=1;" vertex="1" parent="M-I3FPsPZdNOpzpNkjFR-198">
          <mxGeometry x="97" width="96" height="47" as="geometry">
            <mxRectangle width="96" height="47" as="alternateBounds" />
          </mxGeometry>
        </mxCell>
        <mxCell id="M-I3FPsPZdNOpzpNkjFR-201" value="" style="connectable=0;recursiveResize=0;strokeColor=inherit;fillColor=none;align=center;whiteSpace=wrap;html=1;" vertex="1" parent="M-I3FPsPZdNOpzpNkjFR-198">
          <mxGeometry x="193" width="97" height="47" as="geometry">
            <mxRectangle width="97" height="47" as="alternateBounds" />
          </mxGeometry>
        </mxCell>
        <mxCell id="M-I3FPsPZdNOpzpNkjFR-202" value="" style="childLayout=tableLayout;recursiveResize=0;shadow=0;fillColor=none;" vertex="1" parent="M-I3FPsPZdNOpzpNkjFR-36">
          <mxGeometry x="300" y="40" width="290" height="140" as="geometry" />
        </mxCell>
        <mxCell id="M-I3FPsPZdNOpzpNkjFR-203" value="" style="shape=tableRow;horizontal=0;startSize=0;swimlaneHead=0;swimlaneBody=0;top=0;left=0;bottom=0;right=0;dropTarget=0;collapsible=0;recursiveResize=0;expand=0;fontStyle=0;fillColor=none;strokeColor=inherit;" vertex="1" parent="M-I3FPsPZdNOpzpNkjFR-202">
          <mxGeometry width="290" height="47" as="geometry" />
        </mxCell>
        <mxCell id="M-I3FPsPZdNOpzpNkjFR-204" value="Amount" style="connectable=0;recursiveResize=0;strokeColor=inherit;fillColor=none;align=center;whiteSpace=wrap;html=1;fontStyle=1" vertex="1" parent="M-I3FPsPZdNOpzpNkjFR-203">
          <mxGeometry width="97" height="47" as="geometry">
            <mxRectangle width="97" height="47" as="alternateBounds" />
          </mxGeometry>
        </mxCell>
        <mxCell id="M-I3FPsPZdNOpzpNkjFR-205" value="Happen Time" style="connectable=0;recursiveResize=0;strokeColor=inherit;fillColor=none;align=center;whiteSpace=wrap;html=1;fontStyle=1" vertex="1" parent="M-I3FPsPZdNOpzpNkjFR-203">
          <mxGeometry x="97" width="96" height="47" as="geometry">
            <mxRectangle width="96" height="47" as="alternateBounds" />
          </mxGeometry>
        </mxCell>
        <mxCell id="M-I3FPsPZdNOpzpNkjFR-206" value="Detail" style="connectable=0;recursiveResize=0;strokeColor=inherit;fillColor=none;align=center;whiteSpace=wrap;html=1;fontStyle=1" vertex="1" parent="M-I3FPsPZdNOpzpNkjFR-203">
          <mxGeometry x="193" width="97" height="47" as="geometry">
            <mxRectangle width="97" height="47" as="alternateBounds" />
          </mxGeometry>
        </mxCell>
        <mxCell id="M-I3FPsPZdNOpzpNkjFR-207" style="shape=tableRow;horizontal=0;startSize=0;swimlaneHead=0;swimlaneBody=0;top=0;left=0;bottom=0;right=0;dropTarget=0;collapsible=0;recursiveResize=0;expand=0;fontStyle=0;fillColor=none;strokeColor=inherit;" vertex="1" parent="M-I3FPsPZdNOpzpNkjFR-202">
          <mxGeometry y="47" width="290" height="46" as="geometry" />
        </mxCell>
        <mxCell id="M-I3FPsPZdNOpzpNkjFR-208" value="" style="connectable=0;recursiveResize=0;strokeColor=inherit;fillColor=none;align=center;whiteSpace=wrap;html=1;" vertex="1" parent="M-I3FPsPZdNOpzpNkjFR-207">
          <mxGeometry width="97" height="46" as="geometry">
            <mxRectangle width="97" height="46" as="alternateBounds" />
          </mxGeometry>
        </mxCell>
        <mxCell id="M-I3FPsPZdNOpzpNkjFR-209" value="" style="connectable=0;recursiveResize=0;strokeColor=inherit;fillColor=none;align=center;whiteSpace=wrap;html=1;" vertex="1" parent="M-I3FPsPZdNOpzpNkjFR-207">
          <mxGeometry x="97" width="96" height="46" as="geometry">
            <mxRectangle width="96" height="46" as="alternateBounds" />
          </mxGeometry>
        </mxCell>
        <mxCell id="M-I3FPsPZdNOpzpNkjFR-210" value="" style="connectable=0;recursiveResize=0;strokeColor=inherit;fillColor=none;align=center;whiteSpace=wrap;html=1;" vertex="1" parent="M-I3FPsPZdNOpzpNkjFR-207">
          <mxGeometry x="193" width="97" height="46" as="geometry">
            <mxRectangle width="97" height="46" as="alternateBounds" />
          </mxGeometry>
        </mxCell>
        <mxCell id="M-I3FPsPZdNOpzpNkjFR-211" style="shape=tableRow;horizontal=0;startSize=0;swimlaneHead=0;swimlaneBody=0;top=0;left=0;bottom=0;right=0;dropTarget=0;collapsible=0;recursiveResize=0;expand=0;fontStyle=0;fillColor=none;strokeColor=inherit;" vertex="1" parent="M-I3FPsPZdNOpzpNkjFR-202">
          <mxGeometry y="93" width="290" height="47" as="geometry" />
        </mxCell>
        <mxCell id="M-I3FPsPZdNOpzpNkjFR-212" value="" style="connectable=0;recursiveResize=0;strokeColor=inherit;fillColor=none;align=center;whiteSpace=wrap;html=1;" vertex="1" parent="M-I3FPsPZdNOpzpNkjFR-211">
          <mxGeometry width="97" height="47" as="geometry">
            <mxRectangle width="97" height="47" as="alternateBounds" />
          </mxGeometry>
        </mxCell>
        <mxCell id="M-I3FPsPZdNOpzpNkjFR-213" value="" style="connectable=0;recursiveResize=0;strokeColor=inherit;fillColor=none;align=center;whiteSpace=wrap;html=1;" vertex="1" parent="M-I3FPsPZdNOpzpNkjFR-211">
          <mxGeometry x="97" width="96" height="47" as="geometry">
            <mxRectangle width="96" height="47" as="alternateBounds" />
          </mxGeometry>
        </mxCell>
        <mxCell id="M-I3FPsPZdNOpzpNkjFR-214" value="" style="connectable=0;recursiveResize=0;strokeColor=inherit;fillColor=none;align=center;whiteSpace=wrap;html=1;" vertex="1" parent="M-I3FPsPZdNOpzpNkjFR-211">
          <mxGeometry x="193" width="97" height="47" as="geometry">
            <mxRectangle width="97" height="47" as="alternateBounds" />
          </mxGeometry>
        </mxCell>
        <mxCell id="M-I3FPsPZdNOpzpNkjFR-215" value="" style="childLayout=tableLayout;recursiveResize=0;shadow=0;fillColor=none;" vertex="1" parent="M-I3FPsPZdNOpzpNkjFR-36">
          <mxGeometry x="590" y="40" width="300" height="140" as="geometry" />
        </mxCell>
        <mxCell id="M-I3FPsPZdNOpzpNkjFR-216" value="" style="shape=tableRow;horizontal=0;startSize=0;swimlaneHead=0;swimlaneBody=0;top=0;left=0;bottom=0;right=0;dropTarget=0;collapsible=0;recursiveResize=0;expand=0;fontStyle=0;fillColor=none;strokeColor=inherit;" vertex="1" parent="M-I3FPsPZdNOpzpNkjFR-215">
          <mxGeometry width="300" height="47" as="geometry" />
        </mxCell>
        <mxCell id="M-I3FPsPZdNOpzpNkjFR-217" value="Copy" style="connectable=0;recursiveResize=0;strokeColor=inherit;fillColor=none;align=center;whiteSpace=wrap;html=1;fontStyle=1" vertex="1" parent="M-I3FPsPZdNOpzpNkjFR-216">
          <mxGeometry width="100" height="47" as="geometry">
            <mxRectangle width="100" height="47" as="alternateBounds" />
          </mxGeometry>
        </mxCell>
        <mxCell id="M-I3FPsPZdNOpzpNkjFR-218" value="Delete" style="connectable=0;recursiveResize=0;strokeColor=inherit;fillColor=none;align=center;whiteSpace=wrap;html=1;fontStyle=1" vertex="1" parent="M-I3FPsPZdNOpzpNkjFR-216">
          <mxGeometry x="100" width="100" height="47" as="geometry">
            <mxRectangle width="100" height="47" as="alternateBounds" />
          </mxGeometry>
        </mxCell>
        <mxCell id="M-I3FPsPZdNOpzpNkjFR-219" value="Edit" style="connectable=0;recursiveResize=0;strokeColor=inherit;fillColor=none;align=center;whiteSpace=wrap;html=1;fontStyle=1" vertex="1" parent="M-I3FPsPZdNOpzpNkjFR-216">
          <mxGeometry x="200" width="100" height="47" as="geometry">
            <mxRectangle width="100" height="47" as="alternateBounds" />
          </mxGeometry>
        </mxCell>
        <mxCell id="M-I3FPsPZdNOpzpNkjFR-220" style="shape=tableRow;horizontal=0;startSize=0;swimlaneHead=0;swimlaneBody=0;top=0;left=0;bottom=0;right=0;dropTarget=0;collapsible=0;recursiveResize=0;expand=0;fontStyle=0;fillColor=none;strokeColor=inherit;" vertex="1" parent="M-I3FPsPZdNOpzpNkjFR-215">
          <mxGeometry y="47" width="300" height="46" as="geometry" />
        </mxCell>
        <mxCell id="M-I3FPsPZdNOpzpNkjFR-221" value="" style="connectable=0;recursiveResize=0;strokeColor=inherit;fillColor=none;align=center;whiteSpace=wrap;html=1;" vertex="1" parent="M-I3FPsPZdNOpzpNkjFR-220">
          <mxGeometry width="100" height="46" as="geometry">
            <mxRectangle width="100" height="46" as="alternateBounds" />
          </mxGeometry>
        </mxCell>
        <mxCell id="M-I3FPsPZdNOpzpNkjFR-222" value="" style="connectable=0;recursiveResize=0;strokeColor=inherit;fillColor=none;align=center;whiteSpace=wrap;html=1;" vertex="1" parent="M-I3FPsPZdNOpzpNkjFR-220">
          <mxGeometry x="100" width="100" height="46" as="geometry">
            <mxRectangle width="100" height="46" as="alternateBounds" />
          </mxGeometry>
        </mxCell>
        <mxCell id="M-I3FPsPZdNOpzpNkjFR-223" value="" style="connectable=0;recursiveResize=0;strokeColor=inherit;fillColor=none;align=center;whiteSpace=wrap;html=1;" vertex="1" parent="M-I3FPsPZdNOpzpNkjFR-220">
          <mxGeometry x="200" width="100" height="46" as="geometry">
            <mxRectangle width="100" height="46" as="alternateBounds" />
          </mxGeometry>
        </mxCell>
        <mxCell id="M-I3FPsPZdNOpzpNkjFR-224" style="shape=tableRow;horizontal=0;startSize=0;swimlaneHead=0;swimlaneBody=0;top=0;left=0;bottom=0;right=0;dropTarget=0;collapsible=0;recursiveResize=0;expand=0;fontStyle=0;fillColor=none;strokeColor=inherit;" vertex="1" parent="M-I3FPsPZdNOpzpNkjFR-215">
          <mxGeometry y="93" width="300" height="47" as="geometry" />
        </mxCell>
        <mxCell id="M-I3FPsPZdNOpzpNkjFR-225" value="" style="connectable=0;recursiveResize=0;strokeColor=inherit;fillColor=none;align=center;whiteSpace=wrap;html=1;" vertex="1" parent="M-I3FPsPZdNOpzpNkjFR-224">
          <mxGeometry width="100" height="47" as="geometry">
            <mxRectangle width="100" height="47" as="alternateBounds" />
          </mxGeometry>
        </mxCell>
        <mxCell id="M-I3FPsPZdNOpzpNkjFR-226" value="" style="connectable=0;recursiveResize=0;strokeColor=inherit;fillColor=none;align=center;whiteSpace=wrap;html=1;" vertex="1" parent="M-I3FPsPZdNOpzpNkjFR-224">
          <mxGeometry x="100" width="100" height="47" as="geometry">
            <mxRectangle width="100" height="47" as="alternateBounds" />
          </mxGeometry>
        </mxCell>
        <mxCell id="M-I3FPsPZdNOpzpNkjFR-227" value="" style="connectable=0;recursiveResize=0;strokeColor=inherit;fillColor=none;align=center;whiteSpace=wrap;html=1;" vertex="1" parent="M-I3FPsPZdNOpzpNkjFR-224">
          <mxGeometry x="200" width="100" height="47" as="geometry">
            <mxRectangle width="100" height="47" as="alternateBounds" />
          </mxGeometry>
        </mxCell>
        <mxCell id="M-I3FPsPZdNOpzpNkjFR-228" value="" style="childLayout=tableLayout;recursiveResize=0;shadow=0;fillColor=none;" vertex="1" parent="M-I3FPsPZdNOpzpNkjFR-36">
          <mxGeometry x="10" y="180" width="290" height="140" as="geometry" />
        </mxCell>
        <mxCell id="M-I3FPsPZdNOpzpNkjFR-229" value="" style="shape=tableRow;horizontal=0;startSize=0;swimlaneHead=0;swimlaneBody=0;top=0;left=0;bottom=0;right=0;dropTarget=0;collapsible=0;recursiveResize=0;expand=0;fontStyle=0;fillColor=none;strokeColor=inherit;" vertex="1" parent="M-I3FPsPZdNOpzpNkjFR-228">
          <mxGeometry width="290" height="47" as="geometry" />
        </mxCell>
        <mxCell id="M-I3FPsPZdNOpzpNkjFR-230" value="" style="connectable=0;recursiveResize=0;strokeColor=inherit;fillColor=none;align=center;whiteSpace=wrap;html=1;fontStyle=1" vertex="1" parent="M-I3FPsPZdNOpzpNkjFR-229">
          <mxGeometry width="97" height="47" as="geometry">
            <mxRectangle width="97" height="47" as="alternateBounds" />
          </mxGeometry>
        </mxCell>
        <mxCell id="M-I3FPsPZdNOpzpNkjFR-231" value="" style="connectable=0;recursiveResize=0;strokeColor=inherit;fillColor=none;align=center;whiteSpace=wrap;html=1;fontStyle=1" vertex="1" parent="M-I3FPsPZdNOpzpNkjFR-229">
          <mxGeometry x="97" width="96" height="47" as="geometry">
            <mxRectangle width="96" height="47" as="alternateBounds" />
          </mxGeometry>
        </mxCell>
        <mxCell id="M-I3FPsPZdNOpzpNkjFR-232" value="" style="connectable=0;recursiveResize=0;strokeColor=inherit;fillColor=none;align=center;whiteSpace=wrap;html=1;fontStyle=1" vertex="1" parent="M-I3FPsPZdNOpzpNkjFR-229">
          <mxGeometry x="193" width="97" height="47" as="geometry">
            <mxRectangle width="97" height="47" as="alternateBounds" />
          </mxGeometry>
        </mxCell>
        <mxCell id="M-I3FPsPZdNOpzpNkjFR-233" style="shape=tableRow;horizontal=0;startSize=0;swimlaneHead=0;swimlaneBody=0;top=0;left=0;bottom=0;right=0;dropTarget=0;collapsible=0;recursiveResize=0;expand=0;fontStyle=0;fillColor=none;strokeColor=inherit;" vertex="1" parent="M-I3FPsPZdNOpzpNkjFR-228">
          <mxGeometry y="47" width="290" height="46" as="geometry" />
        </mxCell>
        <mxCell id="M-I3FPsPZdNOpzpNkjFR-234" value="" style="connectable=0;recursiveResize=0;strokeColor=inherit;fillColor=none;align=center;whiteSpace=wrap;html=1;" vertex="1" parent="M-I3FPsPZdNOpzpNkjFR-233">
          <mxGeometry width="97" height="46" as="geometry">
            <mxRectangle width="97" height="46" as="alternateBounds" />
          </mxGeometry>
        </mxCell>
        <mxCell id="M-I3FPsPZdNOpzpNkjFR-235" value="" style="connectable=0;recursiveResize=0;strokeColor=inherit;fillColor=none;align=center;whiteSpace=wrap;html=1;" vertex="1" parent="M-I3FPsPZdNOpzpNkjFR-233">
          <mxGeometry x="97" width="96" height="46" as="geometry">
            <mxRectangle width="96" height="46" as="alternateBounds" />
          </mxGeometry>
        </mxCell>
        <mxCell id="M-I3FPsPZdNOpzpNkjFR-236" value="" style="connectable=0;recursiveResize=0;strokeColor=inherit;fillColor=none;align=center;whiteSpace=wrap;html=1;" vertex="1" parent="M-I3FPsPZdNOpzpNkjFR-233">
          <mxGeometry x="193" width="97" height="46" as="geometry">
            <mxRectangle width="97" height="46" as="alternateBounds" />
          </mxGeometry>
        </mxCell>
        <mxCell id="M-I3FPsPZdNOpzpNkjFR-237" style="shape=tableRow;horizontal=0;startSize=0;swimlaneHead=0;swimlaneBody=0;top=0;left=0;bottom=0;right=0;dropTarget=0;collapsible=0;recursiveResize=0;expand=0;fontStyle=0;fillColor=none;strokeColor=inherit;" vertex="1" parent="M-I3FPsPZdNOpzpNkjFR-228">
          <mxGeometry y="93" width="290" height="47" as="geometry" />
        </mxCell>
        <mxCell id="M-I3FPsPZdNOpzpNkjFR-238" value="" style="connectable=0;recursiveResize=0;strokeColor=inherit;fillColor=none;align=center;whiteSpace=wrap;html=1;" vertex="1" parent="M-I3FPsPZdNOpzpNkjFR-237">
          <mxGeometry width="97" height="47" as="geometry">
            <mxRectangle width="97" height="47" as="alternateBounds" />
          </mxGeometry>
        </mxCell>
        <mxCell id="M-I3FPsPZdNOpzpNkjFR-239" value="" style="connectable=0;recursiveResize=0;strokeColor=inherit;fillColor=none;align=center;whiteSpace=wrap;html=1;" vertex="1" parent="M-I3FPsPZdNOpzpNkjFR-237">
          <mxGeometry x="97" width="96" height="47" as="geometry">
            <mxRectangle width="96" height="47" as="alternateBounds" />
          </mxGeometry>
        </mxCell>
        <mxCell id="M-I3FPsPZdNOpzpNkjFR-240" value="" style="connectable=0;recursiveResize=0;strokeColor=inherit;fillColor=none;align=center;whiteSpace=wrap;html=1;" vertex="1" parent="M-I3FPsPZdNOpzpNkjFR-237">
          <mxGeometry x="193" width="97" height="47" as="geometry">
            <mxRectangle width="97" height="47" as="alternateBounds" />
          </mxGeometry>
        </mxCell>
        <mxCell id="M-I3FPsPZdNOpzpNkjFR-241" value="" style="childLayout=tableLayout;recursiveResize=0;shadow=0;fillColor=none;" vertex="1" parent="M-I3FPsPZdNOpzpNkjFR-36">
          <mxGeometry x="300" y="180" width="290" height="140" as="geometry" />
        </mxCell>
        <mxCell id="M-I3FPsPZdNOpzpNkjFR-242" value="" style="shape=tableRow;horizontal=0;startSize=0;swimlaneHead=0;swimlaneBody=0;top=0;left=0;bottom=0;right=0;dropTarget=0;collapsible=0;recursiveResize=0;expand=0;fontStyle=0;fillColor=none;strokeColor=inherit;" vertex="1" parent="M-I3FPsPZdNOpzpNkjFR-241">
          <mxGeometry width="290" height="47" as="geometry" />
        </mxCell>
        <mxCell id="M-I3FPsPZdNOpzpNkjFR-243" value="" style="connectable=0;recursiveResize=0;strokeColor=inherit;fillColor=none;align=center;whiteSpace=wrap;html=1;fontStyle=1" vertex="1" parent="M-I3FPsPZdNOpzpNkjFR-242">
          <mxGeometry width="97" height="47" as="geometry">
            <mxRectangle width="97" height="47" as="alternateBounds" />
          </mxGeometry>
        </mxCell>
        <mxCell id="M-I3FPsPZdNOpzpNkjFR-244" value="" style="connectable=0;recursiveResize=0;strokeColor=inherit;fillColor=none;align=center;whiteSpace=wrap;html=1;fontStyle=1" vertex="1" parent="M-I3FPsPZdNOpzpNkjFR-242">
          <mxGeometry x="97" width="96" height="47" as="geometry">
            <mxRectangle width="96" height="47" as="alternateBounds" />
          </mxGeometry>
        </mxCell>
        <mxCell id="M-I3FPsPZdNOpzpNkjFR-245" value="" style="connectable=0;recursiveResize=0;strokeColor=inherit;fillColor=none;align=center;whiteSpace=wrap;html=1;fontStyle=1" vertex="1" parent="M-I3FPsPZdNOpzpNkjFR-242">
          <mxGeometry x="193" width="97" height="47" as="geometry">
            <mxRectangle width="97" height="47" as="alternateBounds" />
          </mxGeometry>
        </mxCell>
        <mxCell id="M-I3FPsPZdNOpzpNkjFR-246" style="shape=tableRow;horizontal=0;startSize=0;swimlaneHead=0;swimlaneBody=0;top=0;left=0;bottom=0;right=0;dropTarget=0;collapsible=0;recursiveResize=0;expand=0;fontStyle=0;fillColor=none;strokeColor=inherit;" vertex="1" parent="M-I3FPsPZdNOpzpNkjFR-241">
          <mxGeometry y="47" width="290" height="46" as="geometry" />
        </mxCell>
        <mxCell id="M-I3FPsPZdNOpzpNkjFR-247" value="" style="connectable=0;recursiveResize=0;strokeColor=inherit;fillColor=none;align=center;whiteSpace=wrap;html=1;" vertex="1" parent="M-I3FPsPZdNOpzpNkjFR-246">
          <mxGeometry width="97" height="46" as="geometry">
            <mxRectangle width="97" height="46" as="alternateBounds" />
          </mxGeometry>
        </mxCell>
        <mxCell id="M-I3FPsPZdNOpzpNkjFR-248" value="" style="connectable=0;recursiveResize=0;strokeColor=inherit;fillColor=none;align=center;whiteSpace=wrap;html=1;" vertex="1" parent="M-I3FPsPZdNOpzpNkjFR-246">
          <mxGeometry x="97" width="96" height="46" as="geometry">
            <mxRectangle width="96" height="46" as="alternateBounds" />
          </mxGeometry>
        </mxCell>
        <mxCell id="M-I3FPsPZdNOpzpNkjFR-249" value="" style="connectable=0;recursiveResize=0;strokeColor=inherit;fillColor=none;align=center;whiteSpace=wrap;html=1;" vertex="1" parent="M-I3FPsPZdNOpzpNkjFR-246">
          <mxGeometry x="193" width="97" height="46" as="geometry">
            <mxRectangle width="97" height="46" as="alternateBounds" />
          </mxGeometry>
        </mxCell>
        <mxCell id="M-I3FPsPZdNOpzpNkjFR-250" style="shape=tableRow;horizontal=0;startSize=0;swimlaneHead=0;swimlaneBody=0;top=0;left=0;bottom=0;right=0;dropTarget=0;collapsible=0;recursiveResize=0;expand=0;fontStyle=0;fillColor=none;strokeColor=inherit;" vertex="1" parent="M-I3FPsPZdNOpzpNkjFR-241">
          <mxGeometry y="93" width="290" height="47" as="geometry" />
        </mxCell>
        <mxCell id="M-I3FPsPZdNOpzpNkjFR-251" value="" style="connectable=0;recursiveResize=0;strokeColor=inherit;fillColor=none;align=center;whiteSpace=wrap;html=1;" vertex="1" parent="M-I3FPsPZdNOpzpNkjFR-250">
          <mxGeometry width="97" height="47" as="geometry">
            <mxRectangle width="97" height="47" as="alternateBounds" />
          </mxGeometry>
        </mxCell>
        <mxCell id="M-I3FPsPZdNOpzpNkjFR-252" value="" style="connectable=0;recursiveResize=0;strokeColor=inherit;fillColor=none;align=center;whiteSpace=wrap;html=1;" vertex="1" parent="M-I3FPsPZdNOpzpNkjFR-250">
          <mxGeometry x="97" width="96" height="47" as="geometry">
            <mxRectangle width="96" height="47" as="alternateBounds" />
          </mxGeometry>
        </mxCell>
        <mxCell id="M-I3FPsPZdNOpzpNkjFR-253" value="" style="connectable=0;recursiveResize=0;strokeColor=inherit;fillColor=none;align=center;whiteSpace=wrap;html=1;" vertex="1" parent="M-I3FPsPZdNOpzpNkjFR-250">
          <mxGeometry x="193" width="97" height="47" as="geometry">
            <mxRectangle width="97" height="47" as="alternateBounds" />
          </mxGeometry>
        </mxCell>
        <mxCell id="M-I3FPsPZdNOpzpNkjFR-254" value="" style="childLayout=tableLayout;recursiveResize=0;shadow=0;fillColor=none;" vertex="1" parent="M-I3FPsPZdNOpzpNkjFR-36">
          <mxGeometry x="590" y="180" width="300" height="140" as="geometry" />
        </mxCell>
        <mxCell id="M-I3FPsPZdNOpzpNkjFR-255" value="" style="shape=tableRow;horizontal=0;startSize=0;swimlaneHead=0;swimlaneBody=0;top=0;left=0;bottom=0;right=0;dropTarget=0;collapsible=0;recursiveResize=0;expand=0;fontStyle=0;fillColor=none;strokeColor=inherit;" vertex="1" parent="M-I3FPsPZdNOpzpNkjFR-254">
          <mxGeometry width="300" height="47" as="geometry" />
        </mxCell>
        <mxCell id="M-I3FPsPZdNOpzpNkjFR-256" value="" style="connectable=0;recursiveResize=0;strokeColor=inherit;fillColor=none;align=center;whiteSpace=wrap;html=1;fontStyle=1" vertex="1" parent="M-I3FPsPZdNOpzpNkjFR-255">
          <mxGeometry width="100" height="47" as="geometry">
            <mxRectangle width="100" height="47" as="alternateBounds" />
          </mxGeometry>
        </mxCell>
        <mxCell id="M-I3FPsPZdNOpzpNkjFR-257" value="" style="connectable=0;recursiveResize=0;strokeColor=inherit;fillColor=none;align=center;whiteSpace=wrap;html=1;fontStyle=1" vertex="1" parent="M-I3FPsPZdNOpzpNkjFR-255">
          <mxGeometry x="100" width="100" height="47" as="geometry">
            <mxRectangle width="100" height="47" as="alternateBounds" />
          </mxGeometry>
        </mxCell>
        <mxCell id="M-I3FPsPZdNOpzpNkjFR-258" value="" style="connectable=0;recursiveResize=0;strokeColor=inherit;fillColor=none;align=center;whiteSpace=wrap;html=1;fontStyle=1" vertex="1" parent="M-I3FPsPZdNOpzpNkjFR-255">
          <mxGeometry x="200" width="100" height="47" as="geometry">
            <mxRectangle width="100" height="47" as="alternateBounds" />
          </mxGeometry>
        </mxCell>
        <mxCell id="M-I3FPsPZdNOpzpNkjFR-259" style="shape=tableRow;horizontal=0;startSize=0;swimlaneHead=0;swimlaneBody=0;top=0;left=0;bottom=0;right=0;dropTarget=0;collapsible=0;recursiveResize=0;expand=0;fontStyle=0;fillColor=none;strokeColor=inherit;" vertex="1" parent="M-I3FPsPZdNOpzpNkjFR-254">
          <mxGeometry y="47" width="300" height="46" as="geometry" />
        </mxCell>
        <mxCell id="M-I3FPsPZdNOpzpNkjFR-260" value="" style="connectable=0;recursiveResize=0;strokeColor=inherit;fillColor=none;align=center;whiteSpace=wrap;html=1;" vertex="1" parent="M-I3FPsPZdNOpzpNkjFR-259">
          <mxGeometry width="100" height="46" as="geometry">
            <mxRectangle width="100" height="46" as="alternateBounds" />
          </mxGeometry>
        </mxCell>
        <mxCell id="M-I3FPsPZdNOpzpNkjFR-261" value="" style="connectable=0;recursiveResize=0;strokeColor=inherit;fillColor=none;align=center;whiteSpace=wrap;html=1;" vertex="1" parent="M-I3FPsPZdNOpzpNkjFR-259">
          <mxGeometry x="100" width="100" height="46" as="geometry">
            <mxRectangle width="100" height="46" as="alternateBounds" />
          </mxGeometry>
        </mxCell>
        <mxCell id="M-I3FPsPZdNOpzpNkjFR-262" value="" style="connectable=0;recursiveResize=0;strokeColor=inherit;fillColor=none;align=center;whiteSpace=wrap;html=1;" vertex="1" parent="M-I3FPsPZdNOpzpNkjFR-259">
          <mxGeometry x="200" width="100" height="46" as="geometry">
            <mxRectangle width="100" height="46" as="alternateBounds" />
          </mxGeometry>
        </mxCell>
        <mxCell id="M-I3FPsPZdNOpzpNkjFR-263" style="shape=tableRow;horizontal=0;startSize=0;swimlaneHead=0;swimlaneBody=0;top=0;left=0;bottom=0;right=0;dropTarget=0;collapsible=0;recursiveResize=0;expand=0;fontStyle=0;fillColor=none;strokeColor=inherit;" vertex="1" parent="M-I3FPsPZdNOpzpNkjFR-254">
          <mxGeometry y="93" width="300" height="47" as="geometry" />
        </mxCell>
        <mxCell id="M-I3FPsPZdNOpzpNkjFR-264" value="" style="connectable=0;recursiveResize=0;strokeColor=inherit;fillColor=none;align=center;whiteSpace=wrap;html=1;" vertex="1" parent="M-I3FPsPZdNOpzpNkjFR-263">
          <mxGeometry width="100" height="47" as="geometry">
            <mxRectangle width="100" height="47" as="alternateBounds" />
          </mxGeometry>
        </mxCell>
        <mxCell id="M-I3FPsPZdNOpzpNkjFR-265" value="" style="connectable=0;recursiveResize=0;strokeColor=inherit;fillColor=none;align=center;whiteSpace=wrap;html=1;" vertex="1" parent="M-I3FPsPZdNOpzpNkjFR-263">
          <mxGeometry x="100" width="100" height="47" as="geometry">
            <mxRectangle width="100" height="47" as="alternateBounds" />
          </mxGeometry>
        </mxCell>
        <mxCell id="M-I3FPsPZdNOpzpNkjFR-266" value="" style="connectable=0;recursiveResize=0;strokeColor=inherit;fillColor=none;align=center;whiteSpace=wrap;html=1;" vertex="1" parent="M-I3FPsPZdNOpzpNkjFR-263">
          <mxGeometry x="200" width="100" height="47" as="geometry">
            <mxRectangle width="100" height="47" as="alternateBounds" />
          </mxGeometry>
        </mxCell>
        <mxCell id="M-I3FPsPZdNOpzpNkjFR-43" value="Loan" style="strokeColor=inherit;fillColor=inherit;gradientColor=inherit;strokeWidth=1;shadow=0;dashed=0;align=center;html=1;shape=mxgraph.mockup.containers.rrect;rSize=0;fontSize=17;fontColor=#666666;gradientColor=none;" vertex="1" parent="M-I3FPsPZdNOpzpNkjFR-14">
          <mxGeometry x="414" y="200" width="80" height="25" as="geometry" />
        </mxCell>
        <mxCell id="M-I3FPsPZdNOpzpNkjFR-44" value="Debt" style="strokeColor=inherit;fillColor=inherit;gradientColor=inherit;strokeWidth=1;shadow=0;dashed=0;align=center;html=1;shape=mxgraph.mockup.containers.rrect;rSize=0;fontSize=17;fontColor=#666666;gradientColor=none;" vertex="1" parent="M-I3FPsPZdNOpzpNkjFR-14">
          <mxGeometry x="500" y="200" width="80" height="25" as="geometry" />
        </mxCell>
        <mxCell id="M-I3FPsPZdNOpzpNkjFR-57" value="" style="strokeWidth=1;shadow=0;dashed=0;align=center;html=1;shape=mxgraph.mockup.containers.browserWindow;rSize=0;strokeColor=#1A1A1A;strokeColor2=#008cff;strokeColor3=#c4c4c4;mainText=,;recursiveResize=0;" vertex="1" parent="1">
          <mxGeometry y="1320" width="1070" height="620" as="geometry" />
        </mxCell>
        <mxCell id="M-I3FPsPZdNOpzpNkjFR-58" value="Budget" style="strokeWidth=1;shadow=0;dashed=0;align=center;html=1;shape=mxgraph.mockup.containers.anchor;fontSize=17;fontColor=#666666;align=left;whiteSpace=wrap;" vertex="1" parent="M-I3FPsPZdNOpzpNkjFR-57">
          <mxGeometry x="60" y="12" width="110" height="26" as="geometry" />
        </mxCell>
        <mxCell id="M-I3FPsPZdNOpzpNkjFR-59" value="https://www.financialsaver.com" style="strokeWidth=1;shadow=0;dashed=0;align=center;html=1;shape=mxgraph.mockup.containers.anchor;rSize=0;fontSize=17;fontColor=#666666;align=left;" vertex="1" parent="M-I3FPsPZdNOpzpNkjFR-57">
          <mxGeometry x="130" y="60" width="250" height="26" as="geometry" />
        </mxCell>
        <mxCell id="M-I3FPsPZdNOpzpNkjFR-60" value="" style="rounded=0;whiteSpace=wrap;html=1;" vertex="1" parent="M-I3FPsPZdNOpzpNkjFR-57">
          <mxGeometry y="110" width="1070" height="50" as="geometry" />
        </mxCell>
        <mxCell id="M-I3FPsPZdNOpzpNkjFR-61" value="&lt;font face=&quot;Tahoma&quot; style=&quot;font-size: 14px;&quot;&gt;&lt;b&gt;Menu Sidebar&lt;/b&gt;&lt;/font&gt;" style="rounded=0;whiteSpace=wrap;html=1;" vertex="1" parent="M-I3FPsPZdNOpzpNkjFR-57">
          <mxGeometry y="160" width="160" height="460" as="geometry" />
        </mxCell>
        <mxCell id="M-I3FPsPZdNOpzpNkjFR-62" value="" style="html=1;verticalLabelPosition=bottom;align=center;labelBackgroundColor=#ffffff;verticalAlign=top;strokeWidth=2;strokeColor=#1A1A1A;shadow=0;dashed=0;shape=mxgraph.ios7.icons.user;" vertex="1" parent="M-I3FPsPZdNOpzpNkjFR-57">
          <mxGeometry x="1030" y="120" width="30" height="30" as="geometry" />
        </mxCell>
        <mxCell id="M-I3FPsPZdNOpzpNkjFR-63" value="" style="ellipse;whiteSpace=wrap;html=1;aspect=fixed;" vertex="1" parent="M-I3FPsPZdNOpzpNkjFR-57">
          <mxGeometry x="990" y="120" width="30" height="30" as="geometry" />
        </mxCell>
        <mxCell id="M-I3FPsPZdNOpzpNkjFR-64" value="" style="html=1;verticalLabelPosition=bottom;align=center;labelBackgroundColor=#ffffff;verticalAlign=top;strokeWidth=2;strokeColor=#1A1A1A;shadow=0;dashed=0;shape=mxgraph.ios7.icons.bell;" vertex="1" parent="M-I3FPsPZdNOpzpNkjFR-57">
          <mxGeometry x="996.5" y="126.73" width="17" height="16.55" as="geometry" />
        </mxCell>
        <mxCell id="M-I3FPsPZdNOpzpNkjFR-66" value="&lt;font face=&quot;Tahoma&quot; style=&quot;font-size: 14px;&quot;&gt;&lt;b&gt;Financial Saver&lt;/b&gt;&lt;/font&gt;" style="text;html=1;align=center;verticalAlign=middle;whiteSpace=wrap;rounded=0;" vertex="1" parent="M-I3FPsPZdNOpzpNkjFR-57">
          <mxGeometry x="107.5" y="120" width="120" height="30" as="geometry" />
        </mxCell>
        <mxCell id="M-I3FPsPZdNOpzpNkjFR-67" value="Logo" style="ellipse;shape=doubleEllipse;whiteSpace=wrap;html=1;aspect=fixed;" vertex="1" parent="M-I3FPsPZdNOpzpNkjFR-57">
          <mxGeometry x="70" y="116.25" width="37.5" height="37.5" as="geometry" />
        </mxCell>
        <mxCell id="M-I3FPsPZdNOpzpNkjFR-68" value="" style="html=1;verticalLabelPosition=bottom;labelBackgroundColor=#ffffff;verticalAlign=top;shadow=0;dashed=0;strokeWidth=2;shape=mxgraph.ios7.misc.options;fillColor=#222222;sketch=0;" vertex="1" parent="M-I3FPsPZdNOpzpNkjFR-57">
          <mxGeometry x="20" y="127.26999999999998" width="30" height="16" as="geometry" />
        </mxCell>
        <mxCell id="M-I3FPsPZdNOpzpNkjFR-69" value="" style="strokeWidth=1;shadow=0;dashed=0;align=center;html=1;shape=mxgraph.mockup.containers.marginRect2;rectMarginTop=32;strokeColor=#1A1A1A;gradientColor=none;whiteSpace=wrap;" vertex="1" parent="M-I3FPsPZdNOpzpNkjFR-57">
          <mxGeometry x="180" y="200" width="870" height="400" as="geometry" />
        </mxCell>
        <mxCell id="M-I3FPsPZdNOpzpNkjFR-70" value="&lt;font color=&quot;#ffffff&quot;&gt;Overall&lt;/font&gt;" style="strokeColor=inherit;fillColor=#808080;gradientColor=inherit;strokeWidth=1;shadow=0;dashed=0;align=center;html=1;shape=mxgraph.mockup.containers.rrect;rSize=0;fontSize=17;fontColor=#666666;gradientColor=none;" vertex="1" parent="M-I3FPsPZdNOpzpNkjFR-69">
          <mxGeometry width="60" height="25" relative="1" as="geometry">
            <mxPoint x="10" as="offset" />
          </mxGeometry>
        </mxCell>
        <mxCell id="M-I3FPsPZdNOpzpNkjFR-71" value="&lt;span style=&quot;background-color: rgb(255, 255, 255);&quot;&gt;&lt;font color=&quot;#666666&quot;&gt;Spend&lt;/font&gt;&lt;/span&gt;" style="strokeWidth=1;shadow=0;dashed=0;align=center;html=1;shape=mxgraph.mockup.containers.rrect;rSize=0;fontSize=17;fontColor=#ffffff;strokeColor=#000000;fillColor=#FFFFFF;" vertex="1" parent="M-I3FPsPZdNOpzpNkjFR-69">
          <mxGeometry width="60" height="25" relative="1" as="geometry">
            <mxPoint x="75" as="offset" />
          </mxGeometry>
        </mxCell>
        <mxCell id="M-I3FPsPZdNOpzpNkjFR-72" value="Income" style="strokeColor=inherit;fillColor=inherit;gradientColor=inherit;strokeWidth=1;shadow=0;dashed=0;align=center;html=1;shape=mxgraph.mockup.containers.rrect;rSize=0;fontSize=17;fontColor=#666666;gradientColor=none;" vertex="1" parent="M-I3FPsPZdNOpzpNkjFR-69">
          <mxGeometry width="80" height="25" relative="1" as="geometry">
            <mxPoint x="140" as="offset" />
          </mxGeometry>
        </mxCell>
        <mxCell id="M-I3FPsPZdNOpzpNkjFR-73" value="" style="strokeWidth=1;shadow=0;dashed=0;align=center;html=1;shape=mxgraph.mockup.containers.topButton;rSize=5;strokeColor=#008cff;fillColor=#808080;gradientColor=none;resizeWidth=1;movable=0;deletable=1;" vertex="1" parent="M-I3FPsPZdNOpzpNkjFR-69">
          <mxGeometry width="869.9999999999999" height="7" relative="1" as="geometry">
            <mxPoint y="25" as="offset" />
          </mxGeometry>
        </mxCell>
        <mxCell id="M-I3FPsPZdNOpzpNkjFR-80" value="" style="verticalLabelPosition=bottom;shadow=0;dashed=0;align=center;html=1;verticalAlign=top;strokeWidth=1;shape=mxgraph.mockup.navigation.scrollBar;strokeColor=#999999;barPos=20;fillColor2=#99ddff;strokeColor2=none;" vertex="1" parent="M-I3FPsPZdNOpzpNkjFR-69">
          <mxGeometry x="300" y="50" width="270" height="20" as="geometry" />
        </mxCell>
        <mxCell id="M-I3FPsPZdNOpzpNkjFR-81" value="&lt;font style=&quot;font-size: 12px;&quot; face=&quot;Tahoma&quot;&gt;&lt;span style=&quot;font-weight: normal;&quot;&gt;Tháng 6 Năm 2024&lt;/span&gt;&lt;/font&gt;" style="text;html=1;align=center;verticalAlign=middle;whiteSpace=wrap;rounded=0;fontStyle=1" vertex="1" parent="M-I3FPsPZdNOpzpNkjFR-69">
          <mxGeometry x="400" y="45" width="135" height="30" as="geometry" />
        </mxCell>
        <mxCell id="M-I3FPsPZdNOpzpNkjFR-82" value="" style="shape=ext;double=1;rounded=1;whiteSpace=wrap;html=1;" vertex="1" parent="M-I3FPsPZdNOpzpNkjFR-69">
          <mxGeometry x="20" y="90" width="260" height="80" as="geometry" />
        </mxCell>
        <mxCell id="M-I3FPsPZdNOpzpNkjFR-83" value="" style="shape=ext;double=1;rounded=1;whiteSpace=wrap;html=1;" vertex="1" parent="M-I3FPsPZdNOpzpNkjFR-69">
          <mxGeometry x="305" y="90" width="260" height="80" as="geometry" />
        </mxCell>
        <mxCell id="M-I3FPsPZdNOpzpNkjFR-84" value="" style="shape=ext;double=1;rounded=1;whiteSpace=wrap;html=1;" vertex="1" parent="M-I3FPsPZdNOpzpNkjFR-69">
          <mxGeometry x="590" y="90" width="260" height="80" as="geometry" />
        </mxCell>
        <mxCell id="M-I3FPsPZdNOpzpNkjFR-85" value="" style="shape=ext;double=1;rounded=1;whiteSpace=wrap;html=1;" vertex="1" parent="M-I3FPsPZdNOpzpNkjFR-69">
          <mxGeometry x="20" y="190" width="260" height="80" as="geometry" />
        </mxCell>
        <mxCell id="M-I3FPsPZdNOpzpNkjFR-86" value="" style="shape=ext;double=1;rounded=1;whiteSpace=wrap;html=1;" vertex="1" parent="M-I3FPsPZdNOpzpNkjFR-69">
          <mxGeometry x="305" y="190" width="260" height="80" as="geometry" />
        </mxCell>
        <mxCell id="M-I3FPsPZdNOpzpNkjFR-87" value="" style="shape=ext;double=1;rounded=1;whiteSpace=wrap;html=1;" vertex="1" parent="M-I3FPsPZdNOpzpNkjFR-69">
          <mxGeometry x="590" y="190" width="260" height="80" as="geometry" />
        </mxCell>
        <mxCell id="M-I3FPsPZdNOpzpNkjFR-88" value="" style="shape=ext;double=1;rounded=1;whiteSpace=wrap;html=1;" vertex="1" parent="M-I3FPsPZdNOpzpNkjFR-69">
          <mxGeometry x="20" y="290" width="260" height="80" as="geometry" />
        </mxCell>
        <mxCell id="M-I3FPsPZdNOpzpNkjFR-89" value="" style="shape=ext;double=1;rounded=1;whiteSpace=wrap;html=1;" vertex="1" parent="M-I3FPsPZdNOpzpNkjFR-69">
          <mxGeometry x="305" y="290" width="260" height="80" as="geometry" />
        </mxCell>
        <mxCell id="M-I3FPsPZdNOpzpNkjFR-90" value="" style="shape=ext;double=1;rounded=1;whiteSpace=wrap;html=1;" vertex="1" parent="M-I3FPsPZdNOpzpNkjFR-69">
          <mxGeometry x="590" y="290" width="260" height="80" as="geometry" />
        </mxCell>
        <mxCell id="M-I3FPsPZdNOpzpNkjFR-91" value="" style="html=1;verticalLabelPosition=bottom;align=center;labelBackgroundColor=#ffffff;verticalAlign=top;strokeWidth=2;strokeColor=#333333;shadow=0;dashed=0;shape=mxgraph.ios7.icons.select;" vertex="1" parent="M-I3FPsPZdNOpzpNkjFR-69">
          <mxGeometry x="30" y="100" width="30" height="30" as="geometry" />
        </mxCell>
        <mxCell id="M-I3FPsPZdNOpzpNkjFR-92" value="" style="html=1;verticalLabelPosition=bottom;align=center;labelBackgroundColor=#ffffff;verticalAlign=top;strokeWidth=2;strokeColor=#333333;shadow=0;dashed=0;shape=mxgraph.ios7.icons.select;" vertex="1" parent="M-I3FPsPZdNOpzpNkjFR-69">
          <mxGeometry x="320" y="100" width="30" height="30" as="geometry" />
        </mxCell>
        <mxCell id="M-I3FPsPZdNOpzpNkjFR-93" value="" style="html=1;verticalLabelPosition=bottom;align=center;labelBackgroundColor=#ffffff;verticalAlign=top;strokeWidth=2;strokeColor=#333333;shadow=0;dashed=0;shape=mxgraph.ios7.icons.select;" vertex="1" parent="M-I3FPsPZdNOpzpNkjFR-69">
          <mxGeometry x="600" y="100" width="30" height="30" as="geometry" />
        </mxCell>
        <mxCell id="M-I3FPsPZdNOpzpNkjFR-95" value="" style="html=1;verticalLabelPosition=bottom;align=center;labelBackgroundColor=#ffffff;verticalAlign=top;strokeWidth=2;strokeColor=#4D4D4D;shadow=0;dashed=0;shape=mxgraph.ios7.icons.basketball;" vertex="1" parent="M-I3FPsPZdNOpzpNkjFR-69">
          <mxGeometry x="30" y="200" width="30" height="30" as="geometry" />
        </mxCell>
        <mxCell id="M-I3FPsPZdNOpzpNkjFR-96" value="" style="html=1;verticalLabelPosition=bottom;align=center;labelBackgroundColor=#ffffff;verticalAlign=top;strokeWidth=2;strokeColor=#4D4D4D;shadow=0;dashed=0;shape=mxgraph.ios7.icons.basketball;" vertex="1" parent="M-I3FPsPZdNOpzpNkjFR-69">
          <mxGeometry x="320" y="200" width="30" height="30" as="geometry" />
        </mxCell>
        <mxCell id="M-I3FPsPZdNOpzpNkjFR-97" value="" style="html=1;verticalLabelPosition=bottom;align=center;labelBackgroundColor=#ffffff;verticalAlign=top;strokeWidth=2;strokeColor=#4D4D4D;shadow=0;dashed=0;shape=mxgraph.ios7.icons.basketball;" vertex="1" parent="M-I3FPsPZdNOpzpNkjFR-69">
          <mxGeometry x="600" y="200" width="30" height="30" as="geometry" />
        </mxCell>
        <mxCell id="M-I3FPsPZdNOpzpNkjFR-98" value="&lt;font style=&quot;font-size: 14px;&quot; face=&quot;Tahoma&quot;&gt;&lt;b style=&quot;&quot;&gt;Food And Drink&lt;/b&gt;&lt;/font&gt;" style="text;html=1;align=left;verticalAlign=middle;whiteSpace=wrap;rounded=0;" vertex="1" parent="M-I3FPsPZdNOpzpNkjFR-69">
          <mxGeometry x="70" y="90" width="140" height="50" as="geometry" />
        </mxCell>
        <mxCell id="M-I3FPsPZdNOpzpNkjFR-99" value="&lt;font face=&quot;Tahoma&quot;&gt;&lt;span style=&quot;font-size: 14px;&quot;&gt;&lt;b&gt;Travel&lt;/b&gt;&lt;/span&gt;&lt;/font&gt;" style="text;html=1;align=left;verticalAlign=middle;whiteSpace=wrap;rounded=0;" vertex="1" parent="M-I3FPsPZdNOpzpNkjFR-69">
          <mxGeometry x="360" y="90" width="140" height="50" as="geometry" />
        </mxCell>
        <mxCell id="M-I3FPsPZdNOpzpNkjFR-100" value="&lt;font style=&quot;font-size: 14px;&quot; face=&quot;Tahoma&quot;&gt;&lt;b style=&quot;&quot;&gt;Entertainment&lt;/b&gt;&lt;/font&gt;" style="text;html=1;align=left;verticalAlign=middle;whiteSpace=wrap;rounded=0;" vertex="1" parent="M-I3FPsPZdNOpzpNkjFR-69">
          <mxGeometry x="640" y="90" width="140" height="50" as="geometry" />
        </mxCell>
        <mxCell id="M-I3FPsPZdNOpzpNkjFR-101" value="" style="verticalLabelPosition=bottom;verticalAlign=top;html=1;shadow=0;dashed=0;strokeWidth=1;shape=mxgraph.ios.iProgressBar;barPos=40;" vertex="1" parent="M-I3FPsPZdNOpzpNkjFR-69">
          <mxGeometry x="30" y="140" width="240" height="10" as="geometry" />
        </mxCell>
        <mxCell id="M-I3FPsPZdNOpzpNkjFR-102" value="" style="verticalLabelPosition=bottom;verticalAlign=top;html=1;shadow=0;dashed=0;strokeWidth=1;shape=mxgraph.ios.iProgressBar;barPos=40;" vertex="1" parent="M-I3FPsPZdNOpzpNkjFR-69">
          <mxGeometry x="315" y="140" width="240" height="10" as="geometry" />
        </mxCell>
        <mxCell id="M-I3FPsPZdNOpzpNkjFR-103" value="" style="verticalLabelPosition=bottom;verticalAlign=top;html=1;shadow=0;dashed=0;strokeWidth=1;shape=mxgraph.ios.iProgressBar;barPos=40;" vertex="1" parent="M-I3FPsPZdNOpzpNkjFR-69">
          <mxGeometry x="600" y="140" width="240" height="10" as="geometry" />
        </mxCell>
        <mxCell id="M-I3FPsPZdNOpzpNkjFR-104" value="&lt;font style=&quot;font-size: 10px;&quot; face=&quot;Tahoma&quot;&gt;Spent:...&lt;/font&gt;" style="text;html=1;align=left;verticalAlign=middle;whiteSpace=wrap;rounded=0;" vertex="1" parent="M-I3FPsPZdNOpzpNkjFR-69">
          <mxGeometry x="30" y="150" width="60" height="10" as="geometry" />
        </mxCell>
        <mxCell id="M-I3FPsPZdNOpzpNkjFR-105" value="&lt;font style=&quot;font-size: 10px;&quot; face=&quot;Tahoma&quot;&gt;Limit:...&lt;/font&gt;" style="text;html=1;align=left;verticalAlign=middle;whiteSpace=wrap;rounded=0;" vertex="1" parent="M-I3FPsPZdNOpzpNkjFR-69">
          <mxGeometry x="220" y="150" width="50" height="10" as="geometry" />
        </mxCell>
        <mxCell id="M-I3FPsPZdNOpzpNkjFR-106" value="&lt;font style=&quot;font-size: 10px;&quot; face=&quot;Tahoma&quot;&gt;Spent:...&lt;/font&gt;" style="text;html=1;align=left;verticalAlign=middle;whiteSpace=wrap;rounded=0;" vertex="1" parent="M-I3FPsPZdNOpzpNkjFR-69">
          <mxGeometry x="315" y="150" width="60" height="10" as="geometry" />
        </mxCell>
        <mxCell id="M-I3FPsPZdNOpzpNkjFR-107" value="&lt;font style=&quot;font-size: 10px;&quot; face=&quot;Tahoma&quot;&gt;Limit:...&lt;/font&gt;" style="text;html=1;align=left;verticalAlign=middle;whiteSpace=wrap;rounded=0;" vertex="1" parent="M-I3FPsPZdNOpzpNkjFR-69">
          <mxGeometry x="505" y="150" width="50" height="10" as="geometry" />
        </mxCell>
        <mxCell id="M-I3FPsPZdNOpzpNkjFR-108" value="&lt;font style=&quot;font-size: 10px;&quot; face=&quot;Tahoma&quot;&gt;Limit:...&lt;/font&gt;" style="text;html=1;align=left;verticalAlign=middle;whiteSpace=wrap;rounded=0;" vertex="1" parent="M-I3FPsPZdNOpzpNkjFR-69">
          <mxGeometry x="790" y="150" width="50" height="10" as="geometry" />
        </mxCell>
        <mxCell id="M-I3FPsPZdNOpzpNkjFR-109" value="&lt;font style=&quot;font-size: 10px;&quot; face=&quot;Tahoma&quot;&gt;Spent:...&lt;/font&gt;" style="text;html=1;align=left;verticalAlign=middle;whiteSpace=wrap;rounded=0;" vertex="1" parent="M-I3FPsPZdNOpzpNkjFR-69">
          <mxGeometry x="600" y="150" width="60" height="10" as="geometry" />
        </mxCell>
        <mxCell id="M-I3FPsPZdNOpzpNkjFR-113" value="" style="verticalLabelPosition=bottom;verticalAlign=top;html=1;shadow=0;dashed=0;strokeWidth=1;shape=mxgraph.ios.iProgressBar;barPos=40;" vertex="1" parent="M-I3FPsPZdNOpzpNkjFR-69">
          <mxGeometry x="30" y="240" width="240" height="10" as="geometry" />
        </mxCell>
        <mxCell id="M-I3FPsPZdNOpzpNkjFR-114" value="&lt;font style=&quot;font-size: 10px;&quot; face=&quot;Tahoma&quot;&gt;Spent:...&lt;/font&gt;" style="text;html=1;align=left;verticalAlign=middle;whiteSpace=wrap;rounded=0;" vertex="1" parent="M-I3FPsPZdNOpzpNkjFR-69">
          <mxGeometry x="30" y="250" width="60" height="10" as="geometry" />
        </mxCell>
        <mxCell id="M-I3FPsPZdNOpzpNkjFR-115" value="&lt;font style=&quot;font-size: 10px;&quot; face=&quot;Tahoma&quot;&gt;Limit:...&lt;/font&gt;" style="text;html=1;align=left;verticalAlign=middle;whiteSpace=wrap;rounded=0;" vertex="1" parent="M-I3FPsPZdNOpzpNkjFR-69">
          <mxGeometry x="220" y="250" width="50" height="10" as="geometry" />
        </mxCell>
        <mxCell id="M-I3FPsPZdNOpzpNkjFR-116" value="" style="verticalLabelPosition=bottom;verticalAlign=top;html=1;shadow=0;dashed=0;strokeWidth=1;shape=mxgraph.ios.iProgressBar;barPos=40;" vertex="1" parent="M-I3FPsPZdNOpzpNkjFR-69">
          <mxGeometry x="315" y="240" width="240" height="10" as="geometry" />
        </mxCell>
        <mxCell id="M-I3FPsPZdNOpzpNkjFR-117" value="&lt;font style=&quot;font-size: 10px;&quot; face=&quot;Tahoma&quot;&gt;Spent:...&lt;/font&gt;" style="text;html=1;align=left;verticalAlign=middle;whiteSpace=wrap;rounded=0;" vertex="1" parent="M-I3FPsPZdNOpzpNkjFR-69">
          <mxGeometry x="315" y="250" width="60" height="10" as="geometry" />
        </mxCell>
        <mxCell id="M-I3FPsPZdNOpzpNkjFR-118" value="&lt;font style=&quot;font-size: 10px;&quot; face=&quot;Tahoma&quot;&gt;Limit:...&lt;/font&gt;" style="text;html=1;align=left;verticalAlign=middle;whiteSpace=wrap;rounded=0;" vertex="1" parent="M-I3FPsPZdNOpzpNkjFR-69">
          <mxGeometry x="505" y="250" width="50" height="10" as="geometry" />
        </mxCell>
        <mxCell id="M-I3FPsPZdNOpzpNkjFR-119" value="" style="verticalLabelPosition=bottom;verticalAlign=top;html=1;shadow=0;dashed=0;strokeWidth=1;shape=mxgraph.ios.iProgressBar;barPos=40;" vertex="1" parent="M-I3FPsPZdNOpzpNkjFR-69">
          <mxGeometry x="600" y="240" width="240" height="10" as="geometry" />
        </mxCell>
        <mxCell id="M-I3FPsPZdNOpzpNkjFR-120" value="&lt;font style=&quot;font-size: 10px;&quot; face=&quot;Tahoma&quot;&gt;Spent:...&lt;/font&gt;" style="text;html=1;align=left;verticalAlign=middle;whiteSpace=wrap;rounded=0;" vertex="1" parent="M-I3FPsPZdNOpzpNkjFR-69">
          <mxGeometry x="600" y="250" width="60" height="10" as="geometry" />
        </mxCell>
        <mxCell id="M-I3FPsPZdNOpzpNkjFR-121" value="&lt;font style=&quot;font-size: 10px;&quot; face=&quot;Tahoma&quot;&gt;Limit:...&lt;/font&gt;" style="text;html=1;align=left;verticalAlign=middle;whiteSpace=wrap;rounded=0;" vertex="1" parent="M-I3FPsPZdNOpzpNkjFR-69">
          <mxGeometry x="790" y="250" width="50" height="10" as="geometry" />
        </mxCell>
        <mxCell id="M-I3FPsPZdNOpzpNkjFR-77" value="&lt;font face=&quot;Tahoma&quot;&gt;&lt;span style=&quot;font-size: 18px;&quot;&gt;&lt;b&gt;Budget Category&lt;/b&gt;&lt;/span&gt;&lt;/font&gt;" style="text;html=1;align=left;verticalAlign=middle;whiteSpace=wrap;rounded=0;" vertex="1" parent="M-I3FPsPZdNOpzpNkjFR-57">
          <mxGeometry x="180" y="160" width="220" height="50" as="geometry" />
        </mxCell>
        <mxCell id="M-I3FPsPZdNOpzpNkjFR-122" value="" style="strokeWidth=1;shadow=0;dashed=0;align=center;html=1;shape=mxgraph.mockup.containers.browserWindow;rSize=0;strokeColor=#1A1A1A;strokeColor2=#008cff;strokeColor3=#c4c4c4;mainText=,;recursiveResize=0;" vertex="1" parent="1">
          <mxGeometry y="1970" width="1070" height="620" as="geometry" />
        </mxCell>
        <mxCell id="M-I3FPsPZdNOpzpNkjFR-123" value="Saving" style="strokeWidth=1;shadow=0;dashed=0;align=center;html=1;shape=mxgraph.mockup.containers.anchor;fontSize=17;fontColor=#666666;align=left;whiteSpace=wrap;" vertex="1" parent="M-I3FPsPZdNOpzpNkjFR-122">
          <mxGeometry x="60" y="12" width="110" height="26" as="geometry" />
        </mxCell>
        <mxCell id="M-I3FPsPZdNOpzpNkjFR-124" value="https://www.financialsaver.com" style="strokeWidth=1;shadow=0;dashed=0;align=center;html=1;shape=mxgraph.mockup.containers.anchor;rSize=0;fontSize=17;fontColor=#666666;align=left;" vertex="1" parent="M-I3FPsPZdNOpzpNkjFR-122">
          <mxGeometry x="130" y="60" width="250" height="26" as="geometry" />
        </mxCell>
        <mxCell id="M-I3FPsPZdNOpzpNkjFR-125" value="" style="rounded=0;whiteSpace=wrap;html=1;" vertex="1" parent="M-I3FPsPZdNOpzpNkjFR-122">
          <mxGeometry y="110" width="1070" height="50" as="geometry" />
        </mxCell>
        <mxCell id="M-I3FPsPZdNOpzpNkjFR-126" value="&lt;font face=&quot;Tahoma&quot; style=&quot;font-size: 14px;&quot;&gt;&lt;b&gt;Menu Sidebar&lt;/b&gt;&lt;/font&gt;" style="rounded=0;whiteSpace=wrap;html=1;" vertex="1" parent="M-I3FPsPZdNOpzpNkjFR-122">
          <mxGeometry y="160" width="160" height="460" as="geometry" />
        </mxCell>
        <mxCell id="M-I3FPsPZdNOpzpNkjFR-127" value="" style="html=1;verticalLabelPosition=bottom;align=center;labelBackgroundColor=#ffffff;verticalAlign=top;strokeWidth=2;strokeColor=#1A1A1A;shadow=0;dashed=0;shape=mxgraph.ios7.icons.user;" vertex="1" parent="M-I3FPsPZdNOpzpNkjFR-122">
          <mxGeometry x="1030" y="120" width="30" height="30" as="geometry" />
        </mxCell>
        <mxCell id="M-I3FPsPZdNOpzpNkjFR-128" value="" style="ellipse;whiteSpace=wrap;html=1;aspect=fixed;" vertex="1" parent="M-I3FPsPZdNOpzpNkjFR-122">
          <mxGeometry x="990" y="120" width="30" height="30" as="geometry" />
        </mxCell>
        <mxCell id="M-I3FPsPZdNOpzpNkjFR-129" value="" style="html=1;verticalLabelPosition=bottom;align=center;labelBackgroundColor=#ffffff;verticalAlign=top;strokeWidth=2;strokeColor=#1A1A1A;shadow=0;dashed=0;shape=mxgraph.ios7.icons.bell;" vertex="1" parent="M-I3FPsPZdNOpzpNkjFR-122">
          <mxGeometry x="996.5" y="126.73" width="17" height="16.55" as="geometry" />
        </mxCell>
        <mxCell id="M-I3FPsPZdNOpzpNkjFR-131" value="&lt;font face=&quot;Tahoma&quot; style=&quot;font-size: 14px;&quot;&gt;&lt;b&gt;Financial Saver&lt;/b&gt;&lt;/font&gt;" style="text;html=1;align=center;verticalAlign=middle;whiteSpace=wrap;rounded=0;" vertex="1" parent="M-I3FPsPZdNOpzpNkjFR-122">
          <mxGeometry x="107.5" y="120" width="120" height="30" as="geometry" />
        </mxCell>
        <mxCell id="M-I3FPsPZdNOpzpNkjFR-132" value="Logo" style="ellipse;shape=doubleEllipse;whiteSpace=wrap;html=1;aspect=fixed;" vertex="1" parent="M-I3FPsPZdNOpzpNkjFR-122">
          <mxGeometry x="70" y="116.25" width="37.5" height="37.5" as="geometry" />
        </mxCell>
        <mxCell id="M-I3FPsPZdNOpzpNkjFR-133" value="" style="html=1;verticalLabelPosition=bottom;labelBackgroundColor=#ffffff;verticalAlign=top;shadow=0;dashed=0;strokeWidth=2;shape=mxgraph.ios7.misc.options;fillColor=#222222;sketch=0;" vertex="1" parent="M-I3FPsPZdNOpzpNkjFR-122">
          <mxGeometry x="20" y="127.26999999999998" width="30" height="16" as="geometry" />
        </mxCell>
        <mxCell id="M-I3FPsPZdNOpzpNkjFR-267" value="" style="rounded=0;whiteSpace=wrap;html=1;" vertex="1" parent="M-I3FPsPZdNOpzpNkjFR-122">
          <mxGeometry x="180" y="180" width="170" height="360" as="geometry" />
        </mxCell>
        <mxCell id="M-I3FPsPZdNOpzpNkjFR-269" value="" style="verticalLabelPosition=bottom;verticalAlign=top;html=1;shadow=0;dashed=0;strokeWidth=1;shape=mxgraph.ios.iArrowIcon;fillColor=#999999;fillColor2=#135Ec8;strokeColor=#ffffff;sketch=0;direction=west;" vertex="1" parent="M-I3FPsPZdNOpzpNkjFR-122">
          <mxGeometry x="190" y="190" width="30" height="30" as="geometry" />
        </mxCell>
        <mxCell id="M-I3FPsPZdNOpzpNkjFR-270" value="&lt;font face=&quot;Tahoma&quot; style=&quot;font-size: 14px;&quot;&gt;&lt;b&gt;Name&lt;/b&gt;&lt;/font&gt;" style="text;html=1;align=left;verticalAlign=middle;whiteSpace=wrap;rounded=0;" vertex="1" parent="M-I3FPsPZdNOpzpNkjFR-122">
          <mxGeometry x="225" y="190" width="80" height="30" as="geometry" />
        </mxCell>
        <mxCell id="M-I3FPsPZdNOpzpNkjFR-271" value="" style="rounded=1;whiteSpace=wrap;html=1;" vertex="1" parent="M-I3FPsPZdNOpzpNkjFR-122">
          <mxGeometry x="190" y="230" width="150" height="260" as="geometry" />
        </mxCell>
        <mxCell id="M-I3FPsPZdNOpzpNkjFR-272" value="" style="ellipse;whiteSpace=wrap;html=1;aspect=fixed;" vertex="1" parent="M-I3FPsPZdNOpzpNkjFR-122">
          <mxGeometry x="237.5" y="250" width="60" height="60" as="geometry" />
        </mxCell>
        <mxCell id="M-I3FPsPZdNOpzpNkjFR-273" value="&lt;font face=&quot;Tahoma&quot; style=&quot;font-size: 14px;&quot;&gt;&lt;span&gt;Thông tin Saving&lt;/span&gt;&lt;/font&gt;" style="text;html=1;align=left;verticalAlign=middle;whiteSpace=wrap;rounded=0;fontStyle=0" vertex="1" parent="M-I3FPsPZdNOpzpNkjFR-122">
          <mxGeometry x="210.63" y="365" width="113.75" height="30" as="geometry" />
        </mxCell>
        <mxCell id="M-I3FPsPZdNOpzpNkjFR-274" value="&lt;font style=&quot;font-size: 10px;&quot;&gt;Edit&lt;/font&gt;" style="strokeWidth=1;html=1;shadow=0;dashed=0;shape=mxgraph.ios.iButton;strokeColor=#444444;fontColor=#ffffff;buttonText=;fontSize=8;fillColor=#dddddd;fillColor2=#3D5565;whiteSpace=wrap;align=center;sketch=0;" vertex="1" parent="M-I3FPsPZdNOpzpNkjFR-122">
          <mxGeometry x="200" y="500" width="60" height="25" as="geometry" />
        </mxCell>
        <mxCell id="M-I3FPsPZdNOpzpNkjFR-275" value="&lt;font style=&quot;font-size: 10px;&quot;&gt;Delete&lt;/font&gt;" style="strokeWidth=1;html=1;shadow=0;dashed=0;shape=mxgraph.ios.iButton;strokeColor=#444444;fontColor=#ffffff;buttonText=;fontSize=8;fillColor=#dddddd;fillColor2=#3D5565;whiteSpace=wrap;align=center;sketch=0;" vertex="1" parent="M-I3FPsPZdNOpzpNkjFR-122">
          <mxGeometry x="270" y="500" width="60" height="25" as="geometry" />
        </mxCell>
        <mxCell id="M-I3FPsPZdNOpzpNkjFR-276" value="" style="verticalLabelPosition=bottom;verticalAlign=top;html=1;shadow=0;dashed=0;strokeWidth=1;shape=mxgraph.ios.iProgressBar;barPos=40;" vertex="1" parent="M-I3FPsPZdNOpzpNkjFR-122">
          <mxGeometry x="380" y="210" width="650" height="10" as="geometry" />
        </mxCell>
        <mxCell id="M-I3FPsPZdNOpzpNkjFR-277" value="&lt;font face=&quot;Tahoma&quot; style=&quot;font-size: 14px;&quot;&gt;&lt;span&gt;Tiến độ tiết kiệm&lt;/span&gt;&lt;/font&gt;" style="text;html=1;align=left;verticalAlign=middle;whiteSpace=wrap;rounded=0;fontStyle=0" vertex="1" parent="M-I3FPsPZdNOpzpNkjFR-122">
          <mxGeometry x="380" y="180" width="140" height="30" as="geometry" />
        </mxCell>
        <mxCell id="M-I3FPsPZdNOpzpNkjFR-280" value="&lt;font style=&quot;font-size: 11px;&quot; face=&quot;Tahoma&quot;&gt;Origin:...&lt;/font&gt;" style="text;html=1;align=left;verticalAlign=middle;whiteSpace=wrap;rounded=0;" vertex="1" parent="M-I3FPsPZdNOpzpNkjFR-122">
          <mxGeometry x="380" y="220" width="60" height="10" as="geometry" />
        </mxCell>
        <mxCell id="M-I3FPsPZdNOpzpNkjFR-281" value="&lt;font style=&quot;font-size: 11px;&quot; face=&quot;Tahoma&quot;&gt;Target:...&lt;/font&gt;" style="text;html=1;align=left;verticalAlign=middle;whiteSpace=wrap;rounded=0;" vertex="1" parent="M-I3FPsPZdNOpzpNkjFR-122">
          <mxGeometry x="980" y="220" width="50" height="10" as="geometry" />
        </mxCell>
        <mxCell id="M-I3FPsPZdNOpzpNkjFR-282" value="&lt;font style=&quot;font-size: 11px;&quot; face=&quot;Tahoma&quot;&gt;Current:...&lt;/font&gt;" style="text;html=1;align=left;verticalAlign=middle;whiteSpace=wrap;rounded=0;" vertex="1" parent="M-I3FPsPZdNOpzpNkjFR-122">
          <mxGeometry x="675" y="220" width="60" height="10" as="geometry" />
        </mxCell>
        <mxCell id="M-I3FPsPZdNOpzpNkjFR-283" value="&lt;font face=&quot;Tahoma&quot; style=&quot;font-size: 14px;&quot;&gt;&lt;span&gt;Biểu đồ phân tích&lt;/span&gt;&lt;/font&gt;" style="text;html=1;align=left;verticalAlign=middle;whiteSpace=wrap;rounded=0;fontStyle=0" vertex="1" parent="M-I3FPsPZdNOpzpNkjFR-122">
          <mxGeometry x="380" y="240" width="140" height="30" as="geometry" />
        </mxCell>
        <mxCell id="M-I3FPsPZdNOpzpNkjFR-284" value="" style="verticalLabelPosition=bottom;shadow=0;dashed=0;align=center;html=1;verticalAlign=top;strokeWidth=1;shape=mxgraph.mockup.graphics.lineChart;strokeColor=none;strokeColor2=#666666;strokeColor3=#008cff;strokeColor4=#dddddd;" vertex="1" parent="M-I3FPsPZdNOpzpNkjFR-122">
          <mxGeometry x="380" y="270" width="650" height="210" as="geometry" />
        </mxCell>
        <mxCell id="M-I3FPsPZdNOpzpNkjFR-285" value="&lt;font face=&quot;Tahoma&quot; style=&quot;font-size: 14px;&quot;&gt;&lt;span&gt;Danh sách giao dịch&lt;/span&gt;&lt;/font&gt;" style="text;html=1;align=left;verticalAlign=middle;whiteSpace=wrap;rounded=0;fontStyle=0" vertex="1" parent="M-I3FPsPZdNOpzpNkjFR-122">
          <mxGeometry x="380" y="490" width="140" height="30" as="geometry" />
        </mxCell>
        <mxCell id="M-I3FPsPZdNOpzpNkjFR-286" value="Giao dịch 1" style="shape=ext;double=1;rounded=1;whiteSpace=wrap;html=1;" vertex="1" parent="M-I3FPsPZdNOpzpNkjFR-122">
          <mxGeometry x="380" y="525" width="200" height="40" as="geometry" />
        </mxCell>
        <mxCell id="M-I3FPsPZdNOpzpNkjFR-288" value="Giao dịch 2" style="shape=ext;double=1;rounded=1;whiteSpace=wrap;html=1;" vertex="1" parent="M-I3FPsPZdNOpzpNkjFR-122">
          <mxGeometry x="605" y="525" width="200" height="40" as="geometry" />
        </mxCell>
        <mxCell id="M-I3FPsPZdNOpzpNkjFR-289" value="Giao dịch 3" style="shape=ext;double=1;rounded=1;whiteSpace=wrap;html=1;" vertex="1" parent="M-I3FPsPZdNOpzpNkjFR-122">
          <mxGeometry x="830" y="525" width="200" height="40" as="geometry" />
        </mxCell>
      </root>
    </mxGraphModel>
  </diagram>
</mxfile>
